<svg width="160" height="44" viewBox="0 0 160 44" fill="none" xmlns="http://www.w3.org/2000/svg">
<path d="M22 0C9.84969 0 0 9.84974 0 22C0 34.1503 9.84969 44 22 44C32.901 44 41.9502 36.0716 43.6958 25.6667H43.5379C41.9098 31.9925 36.1674 36.6667 29.3333 36.6667C21.2332 36.6667 14.6667 30.1002 14.6667 22C14.6667 13.8998 21.2332 7.33333 29.3333 7.33333C36.1674 7.33333 41.9098 12.0075 43.5379 18.3333H43.6958C41.9502 7.92838 32.901 0 22 0Z" fill="#A4BCFD"/>
<path d="M0 22C0 9.84974 9.84974 0 22 0C32.901 0 41.9502 7.92838 43.6958 18.3333H28.8713C27.2431 12.0075 21.5007 7.33333 14.6667 7.33333C6.56649 7.33333 0 13.8998 0 22Z" fill="#3538CD"/>
<path d="M0 22C0 34.1503 9.84974 44 22 44C32.901 44 41.9502 36.0716 43.6958 25.6667H28.8713C27.2431 31.9925 21.5007 36.6667 14.6667 36.6667C6.56649 36.6667 0 30.1002 0 22Z" fill="#3538CD"/>
<path d="M75.4386 18.5071C74.8122 13.9829 71.3321 11.3579 66.8179 11.3579C61.4983 11.3579 57.4912 15.2358 57.4912 21.8181C57.4912 28.3906 61.4486 32.2784 66.8179 32.2784C71.6602 32.2784 74.8719 29.1463 75.4386 25.2585L71.7199 25.2386C71.2526 27.625 69.3037 28.9673 66.8676 28.9673C63.5665 28.9673 61.2 26.4914 61.2 21.8181C61.2 17.2244 63.5466 14.669 66.8776 14.669C69.3534 14.669 71.2923 16.071 71.7199 18.5071H75.4386Z" fill="white"/>
<path d="M83.0526 32.3082C85.4489 32.3082 86.8808 31.1846 87.537 29.9019H87.6563V32H91.1166V21.7784C91.1166 17.7414 87.8254 16.5284 84.912 16.5284C81.7004 16.5284 79.2345 17.9602 78.439 20.7443L81.7998 21.2215C82.1578 20.1775 83.172 19.2826 84.9319 19.2826C86.6024 19.2826 87.5171 20.1377 87.5171 21.6392V21.6988C87.5171 22.7329 86.4333 22.7826 83.7387 23.071C80.7757 23.3892 77.9418 24.2741 77.9418 27.7144C77.9418 30.7173 80.1393 32.3082 83.0526 32.3082ZM83.9873 29.6633C82.4859 29.6633 81.412 28.9772 81.412 27.6548C81.412 26.2727 82.6151 25.696 84.2259 25.4673C85.1705 25.338 87.0597 25.0994 87.5271 24.7215V26.5213C87.5271 28.2215 86.1549 29.6633 83.9873 29.6633Z" fill="white"/>
<path d="M102.362 16.7272H99.3495V13.0681H95.7501V16.7272H93.5825V19.5113H95.7501V28.0028C95.7302 30.8764 97.8183 32.2883 100.523 32.2088C101.547 32.1789 102.253 31.9801 102.641 31.8508L102.034 29.0369C101.835 29.0866 101.428 29.1761 100.98 29.1761C100.075 29.1761 99.3495 28.8579 99.3495 27.4062V19.5113H102.362V16.7272Z" fill="white"/>
<path d="M109.767 32.3082C112.164 32.3082 113.596 31.1846 114.252 29.9019H114.371V32H117.831V21.7784C117.831 17.7414 114.54 16.5284 111.627 16.5284C108.415 16.5284 105.949 17.9602 105.154 20.7443L108.515 21.2215C108.873 20.1775 109.887 19.2826 111.647 19.2826C113.317 19.2826 114.232 20.1377 114.232 21.6392V21.6988C114.232 22.7329 113.148 22.7826 110.454 23.071C107.49 23.3892 104.657 24.2741 104.657 27.7144C104.657 30.7173 106.854 32.3082 109.767 32.3082ZM110.702 29.6633C109.201 29.6633 108.127 28.9772 108.127 27.6548C108.127 26.2727 109.33 25.696 110.941 25.4673C111.885 25.338 113.775 25.0994 114.242 24.7215V26.5213C114.242 28.2215 112.87 29.6633 110.702 29.6633Z" fill="white"/>
<path d="M125.05 11.6363H121.451V32H125.05V11.6363Z" fill="white"/>
<path d="M135.413 32.2983C139.888 32.2983 142.732 29.1463 142.732 24.4233C142.732 19.6903 139.888 16.5284 135.413 16.5284C130.939 16.5284 128.095 19.6903 128.095 24.4233C128.095 29.1463 130.939 32.2983 135.413 32.2983ZM135.433 29.4147C132.957 29.4147 131.744 27.2073 131.744 24.4133C131.744 21.6193 132.957 19.3821 135.433 19.3821C137.869 19.3821 139.082 21.6193 139.082 24.4133C139.082 27.2073 137.869 29.4147 135.433 29.4147Z" fill="white"/>
<path d="M152.429 38.0454C156.555 38.0454 159.598 36.1562 159.598 32.2485V16.7272H156.048V19.2528H155.849C155.302 18.1491 154.159 16.5284 151.464 16.5284C147.934 16.5284 145.16 19.2926 145.16 24.3139C145.16 29.2954 147.934 31.7812 151.454 31.7812C154.069 31.7812 155.292 30.3792 155.849 29.2556H156.028V32.1491C156.028 34.3963 154.537 35.321 152.488 35.321C150.321 35.321 149.366 34.2968 148.929 33.4019L145.687 34.1875C146.343 36.3252 148.541 38.0454 152.429 38.0454ZM152.459 28.9573C150.082 28.9573 148.829 27.1079 148.829 24.294C148.829 21.5198 150.062 19.4815 152.459 19.4815C154.775 19.4815 156.048 21.4005 156.048 24.294C156.048 27.2073 154.755 28.9573 152.459 28.9573Z" fill="white"/>
</svg>
